<?xml version="1.0" standalone="no"?>
<!-- Generator: Adobe Fireworks 10, Export SVG Extension by Aaron Beall (http://fireworks.abeall.com) . Version: 0.6.1  -->
<!DOCTYPE svg PUBLIC "-//W3C//DTD SVG 1.1//EN" "http://www.w3.org/Graphics/SVG/1.1/DTD/svg11.dtd">
<svg id="Untitled-Str%E1nka%201" viewBox="0 0 16 13" style="background-color:#ffffff00" version="1.1"
	xmlns="http://www.w3.org/2000/svg" xmlns:xlink="http://www.w3.org/1999/xlink" xml:space="preserve"
	x="0px" y="0px" width="16px" height="13px"
>
	<g id="Vrstva%201">
		<g>
			<path d="M 0 1 L 0 12 C 0 12.5527 0.4478 13 1 13 L 15 13 C 15.5522 13 16 12.5527 16 12 L 16 1 C 16 0.4473 15.5522 0 15 0 L 1 0 C 0.4478 0 0 0.4473 0 1 ZM 14 3 L 8.6655 7.7568 C 8.2861 8.0957 7.7139 8.0957 7.3345 7.7568 L 2 3 L 2 2 L 3.6191 2 C 3.8643 2 4.1011 2.0898 4.2842 2.2529 L 7.3594 4.9912 C 7.7407 5.3311 8.3164 5.3291 8.6948 4.9863 L 11.7144 2.2578 C 11.8984 2.0918 12.1372 2 12.3848 2 L 14 2 L 14 3 Z" fill="#ffffff"/>
		</g>
	</g>
</svg>